<svg version="1.2" xmlns="http://www.w3.org/2000/svg" viewBox="0 0 1584 1224" width="124" height="96">
	<title>LOGO DESKTOP-ai</title>
	<style>
		.s0 { fill: #231f20 } 
		.s1 { fill: #fecb0b } 
	</style>
	<g id="Capa 1">
		<g id="&lt;Group&gt;">
			<path id="&lt;Compound Path&gt;" fill-rule="evenodd" class="s0" d="m1337 783.1c0 5.9-1.6 11.5-4.6 17-3.1 5.5-7.3 9.6-12.7 12.7-5.4 3-11.1 4.5-17 4.5-5.9 0-11.6-1.5-17-4.5-5.4-3.1-9.7-7.2-12.7-12.7-3-5.5-4.5-11.1-4.5-17 0-5.9 1.5-11.7 4.6-17.2 3.1-5.4 7.3-9.7 12.8-12.6 5.5-2.9 11.1-4.4 16.8-4.4 5.7 0 11.4 1.5 16.8 4.4 5.5 2.9 9.8 7.2 12.8 12.6 3.1 5.5 4.7 11.3 4.7 17.2zm-5.8 0c0-4.9-1.3-9.8-3.8-14.3-2.6-4.6-6.1-8.1-10.7-10.6-4.6-2.4-9.2-3.7-14-3.7-4.8 0-9.5 1.3-14 3.7-4.6 2.5-8.1 6-10.6 10.6-2.6 4.5-4 9.4-4 14.3 0 5 1.4 9.7 3.9 14.2q3.8 6.8 10.5 10.5c4.6 2.6 9.3 3.8 14.2 3.8 4.9 0 9.7-1.2 14.2-3.8q6.8-3.7 10.5-10.5c2.6-4.5 3.8-9.2 3.8-14.2z"/>
			<path id="&lt;Compound Path&gt;" fill-rule="evenodd" class="s0" d="m1314.2 794.8l4.4 7.2h-7.2l-3.3-5.8c-2.6-4.5-4.6-7.4-6.2-8.6-1.1-0.9-2.6-1.3-4.7-1.3h-3.6v15.7h-5.9v-36.8h12.7c4.3 0 7.4 0.3 9.4 1 1.8 0.7 3.4 1.9 4.6 3.6q1.7 2.5 1.7 5.3c0 2.8-0.9 5.1-2.9 7.1-1.9 2-4.5 3.1-7.6 3.4 1.3 0.5 2.3 1.1 3.1 1.9 1.5 1.5 3.3 3.9 5.5 7.3zm-6.3-15c1.3-1.1 1.9-2.4 1.9-4.1 0-1.1-0.4-2.1-0.9-2.9-0.6-0.9-1.4-1.6-2.5-2-1.1-0.4-3.1-0.6-6-0.6h-6.8v11.1h7.3c3.3 0 5.7-0.6 7-1.5z"/>
		</g>
		<g id="&lt;Group&gt;">
			<path id="&lt;Path&gt;" class="s0" d="m860.5 925.3q-5.7 19.9-16.7 45.7c0.4 0 1.5-0.3 3.2-0.5 1.6-0.3 3-0.4 3.8-0.5q1.7-0.3 3.3-0.4c1.2-0.1 2.3-0.2 3.6-0.2q-2.8 7.3-6 13.9c-1.9 4.4-3.5 7.5-4.7 9.4-1.3 2-6.9 4.8-17.2 8.6l-0.6 0.3c-12.3 21.7-24.3 39.6-35.8 53.7-11.6 14.1-20 21.5-25.3 22.1-1.2 0.2-2.3-0.2-3.2-0.9-0.9-0.7-1.4-1.6-1.4-2.6-0.8-6.4 1.7-13.8 7.3-22.3 5.5-8.6 12.2-14.3 19.8-17.3 2.9-4 5.8-8.2 8.8-12.8 3.1-4.6 6.3-9.8 9.9-15.6-6.4 1.5-12 2.7-16.6 3.6-4.7 0.9-9.1 1.5-13 2-2.5 0.3-4.5 0.2-6-0.4-1.4-0.5-2.2-1.4-2.4-2.5-0.8-8 2.8-14.5 10.7-19.8 7.9-5.3 22.8-10.6 44.4-16.2 6.2-14 10.4-25.2 13.2-33.7 2.7-8.5 4-14.5 3.7-18.1-0.3-1.2-0.7-2-1.6-2.4-0.8-0.4-2.3-0.5-4.3-0.3-8.1 1-19.2 4.1-33.1 9.5-13.9 5.4-28.8 12.3-44.7 20.7l9.9-1.3 3.2-0.4c0.9-0.2 1.4-0.1 2 0.3 0.6 0.3 0.8 0.8 0.8 1.4 0.2 1.2-2.8 3.2-9.3 5.9-2.7 1.2-5 2-6.6 2.8-2.6 1.1-5.9 2.8-10.1 5-4 2.2-6.5 3.4-7.8 3.5-1.8 0.2-3.1-0.1-4.2-1-1-1-1.7-2.3-1.9-3.8-0.1-1.6 0.3-4.6 1.4-9.2 1-4.6 2.5-9.4 4.4-14.5 1.9-4.9 4-8.9 6.2-12.1 2-3.1 4.5-5.6 7.4-7.4 2.2-1.4 6.2-3.5 12.2-6.1 5.7-2.7 12.3-5.4 19.4-8.1 11-4.2 21.1-7.5 30.3-10 9.4-2.6 17.9-4.3 25.4-5.1q12.9-1.6 17.6 0.2c2.2 0.7 3.8 2.3 4.5 4.6 0.2 0.9 0.6 1.7 0.7 2.8q0.5 4.7-0.7 12c-0.7 4.9-2.1 10.7-3.9 17.5z"/>
			<path id="&lt;Path&gt;" class="s0" d="m1352.8 880.4c-0.1-0.2 1.2-2.7 4-7.4 2.7-4.6 4.9-9.3 6.4-14 0.6-1.7 1.2-2.8 1.8-3.5 0.2-0.2 0.4-0.5 0.8-0.6 0.7-0.5 3.1-0.9 6.8-1.4 1.4-0.2 2.5 0 3.3 0.2 0.8 0.3 1.3 0.8 1.3 1.5 0.2 1.1-0.4 2.9-1.5 5.3-1.1 2.3-2.7 5.1-4.8 8.2l-0.4 0.6c-2 3-3.8 5.5-5.5 7.4-2.7 3-5.1 4.7-6.9 4.9-1.6 0.2-2.9 0.2-3.8 0-1-0.2-1.5-0.6-1.5-1.2z"/>
			<path id="&lt;Compound Path&gt;" fill-rule="evenodd" class="s0" d="m1465.6 927.5c-11.9 16.8-20.2 27.7-25 32.5-4.9 5-9.1 7.6-12.9 8-3 0.4-5.6-0.5-8-2.6-2.3-2-3.6-4.8-4-8.3-0.4-3.3 0.4-10 2.4-20.3l0.1-0.4c-4 5.6-7.8 10.4-11.2 14.4-2.9 3.7-5.5 6.7-7.9 9.2-5.1 5.4-9.1 8.1-11.9 8.5-2.7 0.2-6.3-2.8-11-9.1-2.8-3.8-4.8-7.4-6.2-11-1.8 2.6-3.4 4.9-5 7q-5 6.7-9.2 10.9c-6 6-11.6 9.2-16.9 9.9-5.5 0.6-10-1.3-13.5-5.7-3.3-3.9-5.4-9.4-6.5-16.7-6.4 8.6-11.8 15.3-16.3 20-6.1 6.3-11.1 9.7-15.1 10.2-3.4 0.4-6.5-0.8-9.3-3.6-2.9-2.7-4.5-6.3-5-10.8-0.6-5.8 0.2-11.6 2.7-17.8 2.4-6.1 6.9-13.5 13.3-22.1-4.5 1.6-8.2 2.9-11.1 3.8-3.1 0.9-5.9 1.7-8.5 2.5l-2.2 3.2c-5.1 6.8-9.1 12.3-12.4 16.2-8.1 11.5-15.6 20.1-22.5 26-4.8 4-9.5 6.9-14.2 8.8-2.7 1-5.4 1.6-8 2-7.3 0.8-12.9-0.9-17.4-5.1-3.8-3.8-6.2-9.2-7.5-16.5-6.1 7.7-11.9 14.1-17.3 19.1-7.8 7.2-14.5 11-19.9 11.8-3.9 0.4-7-0.4-9.3-2.3-2.3-2-3.8-5.1-4.2-9.2-0.4-3.4-0.2-7.1 0.6-11.5 0.8-4.3 2-8.8 3.7-13.5-0.6 0.7-1.3 1.3-2 2-0.3 0.3-0.6 0.6-1 0.9q-13 18.4-23.6 27.5c-4.9 4.1-9.6 6.9-14.3 8.8-2.7 1.1-5.4 1.7-8 2-7.3 0.9-12.9-0.9-17.4-5.1-3.7-3.7-6.2-9.2-7.4-16.2-5.8 7.8-10.8 13.9-15.1 18.4-6.1 6.3-11.1 9.7-15.1 10.1-3.4 0.4-6.6-0.7-9.4-3.5-2.8-2.8-4.5-6.4-5-10.9-0.6-5.8 0.4-11.6 2.7-17.8 2.5-6 7-13.5 13.4-22.1-4.5 1.7-8.3 3-11.1 3.9-3.1 0.9-5.9 1.7-8.4 2.4l-2.3 3.2c-6.5 8.9-11.5 15.4-14.8 19.5-7.4 10.1-13.6 17.8-18.7 23.1-6.1 6.4-11.1 9.8-15.1 10.3-3.4 0.4-6.6-0.8-9.4-3.6-2.8-2.8-4.5-6.4-5-10.9-0.5-5.7 0.4-11.6 2.7-17.7 2.5-6.1 6.9-13.5 13.4-22.2-4.6 1.7-8.3 3-11.1 3.9-3.1 0.9-5.9 1.7-8.5 2.4l-2.2 3.2c-5 6.9-9.2 12.3-12.4 16.3-8 11.5-15.7 20.1-22.5 25.9-4.8 4.1-9.6 7-14.3 8.8-2.7 1.1-5.3 1.8-8 2-7.2 0.9-12.9-0.8-17.3-5.1-3.7-3.6-6.2-8.9-7.4-15.9-0.2-1.2-0.4-2.4-0.5-3.8-0.5-4.2-0.2-8.4 0.5-12.8 0.4-2.2 1.1-4.4 1.9-6.7 2.2-6.5 5.9-12.9 11.1-19.3 5.3-6.3 10.9-11.3 16.6-15 1.1-0.7 2.1-1.3 3.1-1.9 5-2.5 10-4.1 15.1-4.7 4.8-0.5 8.4-0.3 10.9 0.9 2.4 1.2 3.8 3.4 4.2 6.4 0.8 6.9-3.2 14.9-12.1 23.8-5.1 5.4-11.1 10.1-18.1 14q-7 4.1-15.2 7.1l0.2 1c0.6 4.6 2 8.1 4.8 10.5 2.4 2.4 5.7 3.4 9.7 2.9 0.1 0 0.4 0 0.5 0 5.1-0.8 10.7-3.7 17.2-8.8 3.8-3 7.8-6.6 11.6-10.8l10.7-13.3c-1.6-0.9-3-1.8-3.8-2.9-0.9-1.1-1.4-2.4-1.6-3.8-0.6-5.3 1.8-11.9 7.2-19.5 5.6-7.5 10.4-11.6 14.5-12q1-0.1 1.8 0.5c0.6 0.5 0.9 1.1 1 1.8q0.1 0.6-0.4 2.2c-0.1 1.1-0.7 2.4-1.2 4l16.3-3q0.4 0 1.5-0.3c2.4-0.5 4.1-0.8 5.2-0.9 3.6-0.4 6.1 0.4 8.1 2.4 1.8 2.1 2.9 5.3 3.4 9.9 0.2 1.6-1 4.3-4.2 7.9-1.8 2-3.3 3.7-4.2 5-3.2 4.5-5.8 9.2-7.7 13.9-2 4.8-2.8 8.5-2.5 11.1q0.4 3 1.9 4.4c0.9 1 2.2 1.3 4 1.1 2-0.2 4.8-2.3 8.9-6.2 3-2.9 7.4-7.7 13.1-14.2l7.5-9.5q-2.5-1.2-3.9-2.8c-0.9-1.2-1.4-2.4-1.6-3.8-0.6-5.4 1.8-11.9 7.3-19.4 5.5-7.7 10.3-11.6 14.4-12.1 0.7-0.1 1.3 0 1.8 0.5 0.6 0.5 0.9 1 1 1.7 0.1 0.5 0 1.2-0.3 2.3q-0.4 1.6-1.3 4l16.3-3c0.3 0 0.9-0.1 1.5-0.4 2.4-0.4 4.1-0.7 5.2-0.9 3.6-0.3 6.2 0.5 8.1 2.5 1.9 2.1 3 5.3 3.5 9.8 0.3 1.7-1.2 4.3-4.2 7.9-1.9 2.1-3.3 3.8-4.2 5.1-3.3 4.5-5.9 9.2-7.9 13.9-1.9 4.8-2.7 8.4-2.4 11.1 0.2 2 0.9 3.4 1.9 4.4 0.9 0.9 2.3 1.2 4 1 2-0.2 4.9-2.3 8.9-6.1 2.6-2.6 6.4-6.5 11.2-12 0.3-4 1.1-7.9 2.5-11.8 2.2-6.5 5.9-12.9 11.1-19.3 5.3-6.5 10.8-11.5 16.6-15.1q1.7-0.9 3.2-1.8c4.9-2.6 9.9-4.1 15.1-4.8 4.8-0.5 8.3-0.2 10.8 1 2.4 1.2 3.8 3.3 4.3 6.4 0.7 6.9-3.3 14.8-12.1 23.8-5.2 5.4-11.2 10-18.1 14-4.7 2.6-9.7 5-15.3 7.1l0.3 1c0.5 4.6 2 8 4.6 10.4 2.6 2.5 5.8 3.5 9.8 3 0.2 0 0.4 0 0.6 0 5-0.8 10.7-3.7 17.2-8.8 5.6-4.4 11.2-10 17.1-16.8v-0.4c4.4-6 8.3-11.5 11.6-16.5 3.2-4.9 6.1-9.8 8.8-14.3-2.1-0.2-4-0.2-5.7-0.2-1.7 0.1-3.3 0.2-4.6 0.4l-4 0.5c-0.7 0-1.2 0-1.5-0.2-0.4-0.2-0.6-0.4-0.6-0.9-0.2-1.4 0.9-4.4 3.4-9.2 2.3-4.7 4.6-8 6.7-10 1.4-1.4 3.6-2.5 6.7-3.4 3-0.9 7.4-1.8 13.1-2.6 0.5-0.9 1.1-2.2 2.1-3.9 5.8-10.4 12.5-16.2 19.9-17.1 1.2 0 2.1 0.2 3 0.7 1 0.6 1.4 1.2 1.5 2.1 0 0.7 0 1.7-0.3 2.6-0.2 0.8-0.8 1.8-1.5 2.9l-7.1 11.1c3.2-0.2 5.7-0.1 7.6 0.4 1.9 0.4 2.9 1.1 3 2 0.1 0.9-0.9 3.4-3 7.3-2 3.9-4.5 7.5-7.4 11.1q-2.7 3.1-5 4.3c-1.6 0.9-3.6 1.4-6.2 1.8-1.9 0.1-3.2 0.3-4 0.4-0.8 0-1.4 0.1-1.9 0.1-4.8 7.8-8.5 15.7-10.7 23.7q-3.6 12.3-2.6 20.7c0.2 2 0.8 3.4 1.9 4.4 1 1 2.4 1.3 4.1 1.1 2.6-0.2 6.6-2.8 11.8-7.6 3.7-3.3 8.2-7.9 13.4-13.6 0.2-4 1.1-7.9 2.4-11.8 2.3-6.5 6-13 11.2-19.4 5.2-6.3 10.8-11.4 16.6-15 1.1-0.6 2.2-1.2 3.2-1.8 4.9-2.6 9.9-4.2 15-4.8 4.8-0.5 8.4-0.2 10.9 1 2.4 1.1 3.8 3.3 4.2 6.4 0.7 6.9-3.3 14.8-12 23.8-5.2 5.3-11.2 10-18.1 14q-7 3.9-15.2 7l0.1 1c0.5 4.6 2.1 8.1 4.7 10.5 2.6 2.4 5.8 3.5 9.8 3 0.1 0 0.4 0 0.6-0.1q7.4-1.1 17.2-8.7c3.8-3.1 7.7-6.6 11.7-10.8l10.6-13.4c-1.7-0.8-3-1.8-3.9-2.9-0.8-1.1-1.5-2.4-1.6-3.8-0.6-5.3 1.8-11.8 7.3-19.4q8.3-11.4 14.4-12.1c0.7-0.1 1.3 0.1 1.9 0.6 0.5 0.4 0.8 1 0.9 1.7 0.1 0.5-0.1 1.2-0.3 2.2q-0.4 1.6-1.3 4l16.3-3c0.3 0 0.8-0.1 1.5-0.3 2.4-0.4 4.2-0.7 5.2-0.9 3.5-0.4 6.2 0.5 8 2.5 1.9 2 3.1 5.3 3.6 9.8 0.3 1.6-1.2 4.2-4.1 7.9-2 2-3.4 3.7-4.3 5-3.3 4.6-5.9 9.3-7.8 14q-2.9 7-2.5 11 0.4 3 1.9 4.4c0.9 0.9 2.3 1.3 4 1.1q2.9-0.4 8.9-6.1c2.9-2.8 7-7.3 12.4-13.4 0.2-4.4 1-8.6 2.5-12.7 2.3-6.6 6.5-14 12.7-21.8 3.1-4 5.9-7 8.3-8.7 2.6-1.7 5.2-2.8 8.1-3.1 2.2-0.3 3.9 0 5.1 0.9 1.2 0.8 1.9 2.2 2.1 4.1q0.6 5.8-5.2 16c-3.9 6.8-9.4 14.3-16.7 22.4-0.2 1.6-0.4 2.8-0.4 3.9-0.1 1.1 0 2.1 0 3 0.4 2.9 1.5 5.2 3.4 6.8 2.1 1.5 4.4 2.2 7.3 1.9 3-0.4 7.2-2.9 12.5-7.5 2.2-1.9 4.5-4.2 7-6.8 1-1 2.1-2.2 3.1-3.3 0.2-3.6 1.4-7.4 3.6-11.9 2.8-5.7 6.9-11.5 12.5-17.4 4.2-4.5 8.7-8.5 13.6-12.1 2.9-2.2 6-4.3 9.2-6.3q3.4-2 7-3.8c4.2-2.3 8.2-4.1 12-5.6q5.8-2.3 8.1-2.6c2.1-0.2 4.4 0.8 6.7 2.9 2.3 2.1 3.6 4.3 3.9 6.4 0.1 0.7-0.1 1.3-0.5 1.8-0.5 0.6-1.3 1.3-2.6 2.3l-3.4 2.7 4.1 6.8q0.9 1.2 1.2 2c0.3 0.6 0.4 1.1 0.4 1.7 0.2 1.5-1.8 6.3-6 14.4-4.2 8.1-6.2 14.2-5.7 18.5q0.3 2.4 1.9 3.4c1.1 0.8 2.6 1 4.3 0.8 2.8-0.3 6.1-2.2 10-5.5 3.8-3.4 9.2-9.3 16.1-17.7zm-583.8 60.3c6-3.7 11-7.2 15.3-10.6q4.5-3.4 7.8-6.6c5.3-5.3 8-9.5 7.5-12.6 0-0.9-0.1-1.4-0.4-1.8q-0.4-0.5-1-0.4c-3.9 0.5-8.4 3.3-13.9 8.5-0.5 0.5-0.9 1-1.4 1.4-6 6.2-10.7 13.6-13.9 22.1zm200.9-23.5c5.9-3.6 11.1-7.2 15.4-10.5 2.8-2.3 5.5-4.5 7.7-6.7 5.4-5.3 8-9.5 7.6-12.6 0-0.8-0.2-1.4-0.5-1.7-0.3-0.4-0.6-0.5-1.1-0.4-3.7 0.5-8.3 3.3-13.7 8.5-0.5 0.4-1 0.9-1.4 1.5-6.1 6.1-10.8 13.4-14 21.9zm120.2-14c6-3.6 11.1-7.1 15.4-10.5 2.9-2.3 5.4-4.5 7.7-6.7 5.4-5.3 8-9.5 7.6-12.6 0-0.8-0.3-1.4-0.5-1.7-0.3-0.3-0.6-0.5-1.1-0.4-3.8 0.4-8.3 3.2-13.7 8.5-0.6 0.4-1 0.9-1.4 1.4-6.1 6.2-10.8 13.5-14 22zm227.2-51.1c-9.2 5.4-16.9 10.3-23.1 14.5-7.2 4.9-12.4 9-15.5 12.3-5.6 5.9-8.1 12.2-7.4 18.6q0.3 2.4 1.4 3.9c0.8 0.9 1.6 1.4 2.6 1.2 3.3-0.3 8.9-5.3 17.3-15 0.5-0.6 1.1-1.3 1.6-2 7.7-9.2 15.4-20.5 23.1-33.5z"/>
			<path id="&lt;Path&gt;" class="s0" d="m237.6 1022.6c-11.1 21.7-19.8 42.6-25.8 62.5 0.9 0 1.7 0.2 2.2 0.7 0.6 0.5 0.9 1.2 1 2.2 0.2 1.1-0.5 3.5-1.8 7.4-1.4 3.8-3.1 7.8-5.2 11.8-2.3 4.1-4.4 7.4-6.6 9.9-2.3 2.4-4.3 3.7-6.2 4-2 0.2-4-0.7-6-2.7-2.2-1.9-3.4-4.2-3.6-6.9-0.9-8.2 3.7-23.9 13.6-47.1 10-23.3 23.4-47.9 40.3-73.9l-1.9 0.2c-18.2 2.1-35 5.4-50.2 9.9-15.3 4.6-29.1 10.3-41.3 17.2l12.8 1.9c0.7 0.1 1.3 0.4 1.9 0.7 0.4 0.4 0.7 0.8 0.8 1.2 0.1 0.9-0.7 1.6-2.5 2.2-1.8 0.6-4.8 1.2-8.9 1.6-9.1 1.1-15 1.3-17.4 0.7-2.4-0.7-3.8-2.7-4.1-6-0.6-5.2 0-11.8 1.8-19.6 1.9-7.9 3.9-13 6.3-15.4 3.5-3.5 12.6-7.9 27.3-12.9 14.6-5.2 29.9-8.6 45.8-10.5 10-1.1 17.5-1.6 22.9-1.4q7.9 0.4 10.8 3c1 1 2.2 2.4 3.4 4.2 1 1.5 1.9 3.2 3 5.3 2.2 4.6 3.4 8.2 3.8 10.8q0.4 4.3-6.8 20.1c-2.5 5.3-5.6 11.6-9.4 18.9z"/>
			<path id="&lt;Compound Path&gt;" fill-rule="evenodd" class="s0" d="m479.6 1032.7l0.9 10.3c-6.2 7.9-11.3 13.7-15.4 17.1-4.2 3.4-8 5.5-11.6 5.9q-1.6 0.1-2.5 0.2c-0.6 0-1.3 0.1-1.8 0.2-3.7 5.2-7.5 9.3-11.5 12.3-2.5 1.8-5 3.2-7.6 4-1.6 0.5-3.1 0.9-4.6 1-6 0.8-11.2-1.3-15.8-6.1-3.9-4.1-6.4-9.3-7.7-15.8-13.8 19-23.7 28.8-29.7 29.5-3.2 0.4-5.7-0.5-7.4-2.7-1.6-2.3-2.8-6.3-3.4-12.3-0.4-3.1-0.5-6.2-0.7-9.3q-0.1-4.6 0.2-9.4c-4.8 6.4-9 11.9-12.7 16.4-2.8 3.6-5.3 6.5-7.4 8.8-4.9 5.5-8.4 8.3-10.4 8.5-2.8 0.3-5.9-2.6-9.3-8.8-2.5-4.6-4.3-9.9-5.5-15.9-4.5 5.5-8.4 9.6-11.7 12.3-4 3.5-7.9 5.4-11.5 5.8q-1.6 0.2-2.5 0.3c-0.7 0-1.3 0.1-1.8 0.2-3.7 5.2-7.4 9.3-11.5 12.2-2.5 1.8-5 3.2-7.6 4.1-1.6 0.5-3.2 0.8-4.7 1-5.9 0.7-11.2-1.3-15.7-6.2q-1-0.9-1.7-1.9c-3.6-4.6-5.8-10.5-6.6-17.8-0.6-5.8 0.3-12 2.7-18.9 1-3 2.4-5.9 3.9-8.7 1.9-3.6 4.2-7.1 7.1-10.3 3.9-5 8.6-9.1 13.7-12.3 0.5-0.3 0.9-0.5 1.3-0.7 4.7-2.8 8.9-4.5 13-5 3.5-0.4 6.7 0 9.8 1.3 2.9 1.2 4.6 2.7 4.8 4.3 0 0.4-0.4 1.2-1.2 2.3-0.8 1.1-1.4 2.2-1.8 3l0.3-0.1c2.1-0.2 3.8 0.3 4.9 1.7 1 1.2 1.7 3.7 2.1 7.2 0.6 4.8 0.2 9.9-1 15.5-1.3 5.6-3.2 11.5-6.1 17.7 3-0.4 6.3-2.3 10.1-5.7 3-2.6 6.4-6.3 10.6-11.4 0.1-3.5 1.2-7.1 3-10.7 2.5-4.8 6.5-9.8 12.2-14.9 6-5.7 11.9-10.2 17.7-13.6l0.8-0.4c5.4-3.2 9.8-5.1 13.3-5.5 1.9-0.2 3.6 0 5 0.5 1.4 0.6 2.9 1.8 4.2 3.2 8.5-20 15.3-34.8 20.1-44.3 4.9-9.5 8.3-14.3 10.2-14.6 1.7-0.1 3.4 0.6 5 2.3 1.7 1.7 2.6 3.7 2.9 6.2 0.6 5.3-6.3 21.6-20.7 49l-2.6 4.6c-3.3 6.4-5.9 14.3-7.7 23.9-1.7 9.5-2.4 17.2-1.7 23 0.1 1.4 0.7 2.4 1.5 3.3 0.9 0.9 1.9 1.3 2.9 1.2 2.8-0.3 9.6-6.6 20.3-18.9 0.1-0.1 0.3-0.3 0.4-0.4 0.4-3.7 1.3-7.5 2.8-11.5 2.3-6.8 6-13.2 10.8-19 4.1-4.9 8.7-9.1 13.8-12.3q0.7-0.4 1.3-0.8c4.7-2.8 8.9-4.3 13-4.8q5.1-0.6 9.8 1.3c2.9 1.1 4.7 2.6 4.7 4.2 0 0.4-0.3 1.1-1 2.3-0.8 1.1-1.5 2.1-2 3l0.4-0.1c2.2-0.2 3.9 0.3 4.9 1.7 1 1.2 1.8 3.7 2.1 7.2 0.6 4.8 0.3 10-1.1 15.5-1.1 5.6-3.2 11.4-6 17.8 3-0.5 6.4-2.4 10.1-5.8 3.8-3.4 8.8-8.8 14.6-16.4zm-196.7 7.4c-5.3 2.9-9.8 6.5-13.8 10.5-2.6 2.5-4.9 5.3-7 8.4-5.2 7.6-7.4 14.4-6.8 20.2 0.2 2.7 1.2 4.5 2.6 5.7 1.4 1.2 3.4 1.7 6 1.3 1.7-0.1 3.4-0.7 5.2-1.6 0.5-0.4 1.1-0.7 1.6-1.1 2.4-1.6 4.6-3.8 6.7-6.4 0-0.3-0.1-0.7-0.2-1.2-0.5-2.4-0.8-4.2-0.9-5.1-0.4-3.6 0-7.9 1.2-13.1 1.1-5.1 2.9-11 5.4-17.6zm84-11.5c-7.3 3.8-13.5 7.4-18.6 10.8-5.2 3.4-9.1 6.7-11.7 9.7-5.2 5.9-7.4 12.7-6.7 20.2 0.2 1.1 0.4 1.9 0.6 2.3 0.2 0.5 0.6 0.6 1.2 0.5 1.7-0.1 4.6-2.2 8.6-6.1 2.2-2.2 4.9-4.9 8-8.4 2.7-3 5.7-6.5 9.1-10.5 0.2-0.2 0.4-0.5 0.7-0.7 4.5-5.3 7.5-11.2 8.8-17.8zm77-7.4c-5.2 3.1-9.9 6.6-13.8 10.5-2.6 2.7-5 5.5-6.9 8.4-5.3 7.7-7.5 14.5-6.9 20.4 0.3 2.6 1.1 4.5 2.6 5.7 1.5 1.2 3.4 1.6 6 1.3 1.7-0.2 3.5-0.8 5.2-1.8 0.6-0.2 1-0.6 1.6-1q3.6-2.4 6.7-6.4 0-0.4-0.2-1.2c-0.5-2.4-0.7-4.1-0.9-5.1-0.3-3.6 0-7.9 1.2-13.1 1-5.1 2.9-11 5.4-17.7z"/>
			<path id="&lt;Compound Path&gt;" fill-rule="evenodd" class="s0" d="m678.1 1010.3l1.1 9.2c-12.3 17.4-20.7 28.3-25.4 33-4.7 4.6-9.1 7.1-12.9 7.5-3.2 0.4-5.8-0.6-7.9-2.9-2.3-2.4-3.6-5.5-4.1-9.6-0.5-4.1 0.5-9.3 2.7-15.7 2.1-6.3 5.6-14 10.7-23.2-7.9 9.5-15.6 20.2-23.1 32.3-7.5 12-12.1 18.1-14.1 18.4-3.1 0.3-5.9-1.8-8.4-6.4-2-3.6-3.5-8.1-4.4-13.7-6.1 8-12 14.3-17.3 19-4.8 3.9-9.5 6.9-14.3 8.7-2.6 1-5.3 1.7-7.9 2q-10.8 1.3-17.4-5.1c-4.4-4.3-6.9-10.8-8-19.7-0.6-6.5 0.1-13 2.4-19.5 2.3-6.5 6-12.9 11.2-19.3q7.9-9.7 16.6-15.1c1.1-0.7 2.1-1.2 3.1-1.8 5-2.6 10-4.1 15.1-4.8 4.8-0.5 8.4-0.2 10.8 1 2.5 1.2 3.9 3.3 4.2 6.3 0.8 7-3.2 14.8-11.9 23.9-5.2 5.4-11.3 10-18.2 13.9-4.6 2.7-9.7 5.1-15.1 7.2l0.1 1c0.5 4.6 2 8 4.7 10.5 2.5 2.4 5.9 3.3 9.8 2.9 0.1 0 0.4 0 0.5-0.1 5-0.7 10.7-3.6 17.2-8.7 4.5-3.4 8.8-7.7 13.4-12.7 3.7-11.9 7.6-21.2 11.8-27.7 4-6.4 8.3-9.9 12.6-10.3 2.5-0.4 4.9-0.2 6.9 0.5 2.1 0.6 3.2 1.6 3.3 2.8 0.2 1.3-1 4.1-3.5 8.4-2.3 4.2-6.1 10-11 17.2-1.4 2.1-2.5 4.2-3 6.4-0.7 2.3-0.9 4.3-0.7 6.3v0.6c10.2-15.4 20.2-28.1 29.8-38.3q14.5-15.2 20.3-15.9c1.5-0.1 3.1 1 4.7 3.6 1.6 2.5 2.6 5.3 3.1 8.4 0.3 3.4-1.5 7.6-5.2 12.8-1.9 2.7-3.4 4.9-4.4 6.4-2.5 4.6-4.5 9-6.1 13.4-1.6 4.2-2.3 7.2-2 8.8 0 1.4 0.4 2.3 1.4 3 0.7 0.8 1.7 1 3 0.8 1.6-0.1 4.4-2.2 8.5-6.2 4.1-4.1 9.8-10.5 17.3-19.5zm-132.8 16.7c6.1-3.6 11.2-7.1 15.4-10.5 3-2.3 5.5-4.5 7.8-6.6 5.4-5.3 7.9-9.6 7.6-12.7-0.1-0.7-0.2-1.4-0.6-1.7-0.2-0.3-0.5-0.5-1-0.4-3.7 0.4-8.3 3.2-13.8 8.5q-0.7 0.7-1.4 1.4-9.1 9.3-14 22z"/>
		</g>
		<g id="&lt;Group&gt;">
			<path id="&lt;Path&gt;" class="s0" d="m1460.4 382.1h-219.4v434.6h-898.8v-434.6h-223.8l675.7-329.5 326.9 161.7v-58.4h131.7v123.5z"/>
			<g id="&lt;Group&gt;">
				<path id="&lt;Path&gt;" class="s1" d="m1232.9 269l-93.4-45.2v-48.2h93.4z"/>
				<path id="&lt;Path&gt;" class="s1" d="m1378.1 363.5h-155.7v433.9h-862.9v-433.9h-161.9l596.5-290.5z"/>
			</g>
		</g>
		<g id="&lt;Group&gt;">
			<path id="&lt;Path&gt;" class="s0" d="m659 516.4v-30.8c0-5.5 8.7-17 20-17h22.1c8.5 0 21.5 9.3 18.7 24.7-2.6-3.8-4.7-6.6-11.2-7.7h-29.6v30.8h29.6c5.3-1.1 9.1-3.8 11.2-7.6 0.6 8.2 0 18.6-11.2 24.7h-29.6c-9.7 0.5-20-5.5-20-17.1z"/>
			<path id="&lt;Compound Path&gt;" fill-rule="evenodd" class="s0" d="m766.5 493.3v-7.8h-35c-1.5 1.1-3.1 1.7-4.2 2.3-0.5-19.4 4.2-19.4 13.9-20 13 0.6 23.3 0 30.1 0 16.8 0 16.8 10.6 16.8 17.7v43.5c1.2 1.6 2.1 3.2 3.7 4.9h-20.5l-3.1-4.9-3.7 4.9h-19.6c-23.6-3.8-28.9-34-0.3-40.6zm0 16.6h-18.8c-3.7 0.3-3.7 4.2 0 4h18.8z"/>
			<path id="&lt;Compound Path&gt;" fill-rule="evenodd" class="s0" d="m899.4 493.3v-7.8h-34.9c-1.7 1.1-3.1 1.7-4.3 2.3-0.6-19.4 4.3-19.4 14-20 13.3-0.1 22.9 0.4 30 0 16.8 0 16.8 17.7 16.8 17.7v43.3c1.2 1.7 2.1 3.2 3.7 5h-20.5l-3-5-3.7 5h-17.1c-26.4 0-29.9-40.1-2.9-40.5zm0 16.5h-19c-3.5 0.4-3.5 4.3 0 4.1h19z"/>
			<path id="&lt;Path&gt;" class="s0" d="m835 533.6h-20.1c-13.8 0-20.8-9.1-20.8-23.6h20.8c0 0 0 4.3 1.9 4.3h12.2c-12.2-8.7-34.9-15.5-34.9-28 0-18.7 16.7-18.7 20.8-18.7h20.1c11.1 0 19.1 12.2 19.1 18.7v7.9h-19.1c0 0 0-7.9-8-7.9h-12.1c1.9 3.9 39.2 20.7 39.2 28 0 6 3.6 19.3-19.1 19.3z"/>
			<path id="&lt;Compound Path&gt;" fill-rule="evenodd" class="s0" d="m1076.8 683.8h-19.7l-3-4.8-3.5 4.8h-16.5c-25.2 0-28.8-37.7-2.8-38.1h21.2v-7.4h-33.7c-1.5 1.1-3 1.6-4.1 2.2-0.6-18.3 4.1-18.3 13.4-18.8 12.9-0.2 22 0.3 29 0 16.1 0 16.1 16.6 16.1 16.6v40.7c1.2 1.7 2.1 3.1 3.6 4.8zm-24.3-22.6h-18.4c-3.3 0.3-3.3 4 0 3.9h18.4z"/>
			<path id="&lt;Path&gt;" class="s0" d="m525 621.9h37.2v17.5h-37.2v6.8h27.1v15.5h-27.1v22.3h-18.9v-44.6c0-17.5 11.8-17.5 18.9-17.5z"/>
			<path id="&lt;Path&gt;" class="s0" d="m586.6 622h36.8v17.6h-36.8v6.8h26.5v15.4h-26.5v6.6h36.8v15.7h-36.8c-12 0-19.3 0-19.3-15.7v-28.8c0-17.6 7.3-17.6 19.3-17.6z"/>
			<path id="&lt;Path&gt;" class="s0" d="m777.6 622h36.9v17.6h-36.9v6.8h26.5v15.4h-26.5v6.6h36.9v15.7h-36.9c-12 0-19.3 0-19.3-15.7v-28.8c0-17.6 7.3-17.6 19.3-17.6z"/>
			<path id="&lt;Path&gt;" class="s0" d="m907.3 622h37v17.6h-37v6.8h26.6v15.4h-26.6v6.6h37v15.7h-37c-12 0-19.3 0-19.3-15.7v-28.8c0-17.6 7.3-17.6 19.3-17.6z"/>
			<path id="&lt;Path&gt;" class="s0" d="m689.6 639.8v6.8h-21.3v-6.8h-16.2v44.6h-21.2v-62.1h21.2v2.5c16.2-5.8 37.5-2.5 37.5 15z"/>
			<path id="&lt;Path&gt;" class="s0" d="m753.8 639.8v6.8h-21.2v-6.8h-16.2v44.6h-21.2v-62.1h21.2v2.5c16.2-5.8 37.4-2.5 37.4 15z"/>
			<path id="&lt;Path&gt;" class="s0" d="m1010.9 639.8v6.8h-21.2v-6.8h-16.1v44.6h-21.2v-62.1h21.2v2.5c16.1-5.8 37.3-2.5 37.3 15z"/>
			<path id="&lt;Path&gt;" class="s0" d="m854.9 622.2h26.6v17.5h-26.6v28.8h26.6v15.7h-26.6c-12.3 0-21.4-8.6-21.4-15.7v-28.8h-10.3v-17.5h10.3v-16.3c2.6 4.5 9.6 16.3 21.4 16.3z"/>
		</g>
		<path id="&lt;Path&gt;" class="s0" d="m1095.4 586.8h-100.9c-30.5 0-48.6-24.7-34.4-52.5l55.2-106.3c1.8-3-8.1-10-12.9-12.3-10.1-3.9-20.4-12-20.4-25.2l-106.8-104.9c-14-11.7-20.4-6.5-32.3-6.5h-85.9c-19.3 0.6-22.3 0.6-30.7-2.7l-119.6 110.1c-8.3 14.2-21.1 25.9-31.2 26.1l-6 6c-5.4 5.4 9.2 7.3 11.8 11.6 0.9 3.4-2.5 6.6-0.3 11.5l9.5 15c3.3 6.6-8.3 16.3-13.2 10.1l-15.1-22.6c-4.8 5-21.9-2.5-26.2-14.5-0.9-2.6-5.5 6-7.3 10.6l-52.1 97.6c-9.3 17.5-0.4 32.1 19.2 30.5h102.4c14 0 23.9-15.9 15.7-29.9l-27.5-46.8h-40.6c-11.6 0-10-16.8 0.5-17h46.9c5.8 0 8.2 5.3 10.2 9.5l26 47.5c12.1 25.3-2.4 56.8-34.9 55.3h-100.2c-31.1 0-50-23.7-34.9-52.7l54.1-103.6c4.8-9.6 16.5-30 37.4-22.5 13.5-1.9 22.1-30 37.4-29.4l118.6-118c-2.4-14.6-1.5-26.2 7-38.1l55.9-107c8.5-19.4 38.2-19.6 48.7 0l20.2 29.8c7.3 11.2-6.9 19.5-14.9 7.9l-19-28.4c-4.2-8.3-15.4-11.2-21.8 1.7l-59 117.2c13.5 1.3 14.8 8.6 18.6 17.7h103.2c2.3-12.3 5.9-19.8 21.8-19.1l-28.7-56h-42.5c-4.9 0-8.1-5.3-7.9-10 0-3.8 4.7-8.1 8.1-8.1h44.6c3.7 0 7.2 0.1 11.8 9.1l27.2 50.4c4.4 8.5 4.1 25 1.8 30.2-1.1 6.9 6.3 2.3 8.7 13.9l106.7 110.4 10.4 2.1c6.7 5.2 18.9 42.2 25.3 22.7-0.8-9 3.6-10 11.3-1.3 5 6 18.8 6.9 22.7 14.4l20 32.9c2.3 4.1 2.7 11.7-3.2 13.7-5.7 2.1-9-0.6-11.2-3.7l-15.9-26.4c-4.1-10.1-8.8 7-17.3 7.9-8.8 1-11.8-7-14.7 0.5l-48.1 94.7c-8.6 17.6-0.2 30.7 25 29.7h93.5c19.4-2.9 23.8-17.1 13.3-36.5l-22.1-39.3h-36.1c-8.2 0-11.9-2.5-11.9-8.8 0-6.2 4.4-8.7 11.7-8.7h37.2c5.4 0 10.4 1.7 12.3 5.2l28.9 50c15 26.2-3.3 55.3-33.1 55.3z"/>
	</g>
</svg>